<?xml version="1.0" encoding="utf-8"?>
<!-- Generator: Adobe Illustrator 24.1.1, SVG Export Plug-In . SVG Version: 6.00 Build 0)  -->
<svg version="1.1" id="Portugal" xmlns="http://www.w3.org/2000/svg" xmlns:xlink="http://www.w3.org/1999/xlink" x="0px" y="0px"
	 viewBox="0 0 1000 1000" style="enable-background:new 0 0 1000 1000;" xml:space="preserve">
<style type="text/css">
	.st0{fill:#1d9bf0;}
</style>
<ellipse transform="matrix(0.0736 -0.9973 0.9973 0.0736 -363.8488 506.4133)" class="st0" cx="90.66" cy="449.05" rx="7.76" ry="7.76"/>
<ellipse class="st0" cx="827.5" cy="449.12" rx="7.76" ry="7.76"/>
<circle class="st0" cx="847.95" cy="449.06" r="7.76"/>
<circle class="st0" cx="868.42" cy="449.06" r="7.76"/>
<ellipse class="st0" cx="213.44" cy="469.55" rx="4.65" ry="4.65"/>
<circle class="st0" cx="233.93" cy="469.52" r="7.76"/>
<circle class="st0" cx="807.01" cy="469.52" r="4.65"/>
<ellipse class="st0" cx="827.49" cy="469.58" rx="7.76" ry="7.76"/>
<circle class="st0" cx="847.95" cy="469.52" r="7.76"/>
<circle class="st0" cx="868.42" cy="469.52" r="7.76"/>
<circle class="st0" cx="888.87" cy="469.52" r="4.65"/>
<ellipse transform="matrix(0.9239 -0.3827 0.3827 0.9239 -172.825 111.1599)" class="st0" cx="193" cy="490" rx="7.76" ry="7.76"/>
<ellipse transform="matrix(0.1602 -0.9871 0.9871 0.1602 211.2733 1228.3048)" class="st0" cx="827.5" cy="489.99" rx="4.65" ry="4.65"/>
<circle class="st0" cx="847.95" cy="489.99" r="7.76"/>
<ellipse class="st0" cx="868.44" cy="489.99" rx="7.76" ry="7.76"/>
<ellipse class="st0" cx="274.85" cy="510.5" rx="4.65" ry="4.65"/>
<circle class="st0" cx="295.33" cy="510.46" r="7.76"/>
<circle class="st0" cx="827.48" cy="510.46" r="4.65"/>
<circle class="st0" cx="847.95" cy="510.46" r="7.76"/>
<ellipse transform="matrix(0.2298 -0.9732 0.9732 0.2298 171.9996 1238.3903)" class="st0" cx="868.43" cy="510.52" rx="7.76" ry="7.76"/>
<circle class="st0" cx="827.48" cy="530.93" r="4.65"/>
<circle class="st0" cx="847.95" cy="530.93" r="7.76"/>
<ellipse class="st0" cx="868.43" cy="530.99" rx="4.65" ry="4.65"/>
<ellipse transform="matrix(0.2298 -0.9732 0.9732 0.2298 -309.227 712.1292)" class="st0" cx="295.32" cy="551.44" rx="4.65" ry="4.65"/>
<circle class="st0" cx="847.95" cy="326.25" r="4.65"/>
<ellipse transform="matrix(0.1602 -0.9871 0.9871 0.1602 352.7005 1107.9738)" class="st0" cx="827.49" cy="346.71" rx="4.65" ry="4.65"/>
<circle class="st0" cx="847.95" cy="346.71" r="7.76"/>
<ellipse class="st0" cx="868.44" cy="346.7" rx="7.76" ry="7.76"/>
<ellipse class="st0" cx="888.89" cy="346.7" rx="7.76" ry="7.76"/>
<ellipse transform="matrix(0.1602 -0.9871 0.9871 0.1602 421.4491 1188.7772)" class="st0" cx="909.36" cy="346.71" rx="4.65" ry="4.65"/>
<circle class="st0" cx="847.95" cy="367.18" r="7.76"/>
<ellipse class="st0" cx="868.44" cy="367.24" rx="7.76" ry="7.76"/>
<ellipse class="st0" cx="888.89" cy="367.24" rx="7.76" ry="7.76"/>
<circle class="st0" cx="909.34" cy="367.18" r="4.65"/>
<circle class="st0" cx="847.95" cy="387.65" r="7.76"/>
<ellipse class="st0" cx="868.44" cy="387.71" rx="7.76" ry="7.76"/>
<ellipse class="st0" cx="888.89" cy="387.71" rx="7.76" ry="7.76"/>
<ellipse transform="matrix(0.2298 -0.9732 0.9732 0.2298 240.0788 1119.7272)" class="st0" cx="827.5" cy="408.18" rx="4.65" ry="4.65"/>
<circle class="st0" cx="847.95" cy="408.12" r="7.76"/>
<circle class="st0" cx="868.42" cy="408.12" r="7.76"/>
<circle class="st0" cx="888.87" cy="408.12" r="7.76"/>
<circle class="st0" cx="111.12" cy="428.59" r="4.65"/>
<ellipse class="st0" cx="827.5" cy="428.58" rx="7.76" ry="7.76"/>
<circle class="st0" cx="847.95" cy="428.59" r="7.76"/>
<ellipse class="st0" cx="868.45" cy="428.58" rx="7.76" ry="7.76"/>
<circle class="st0" cx="888.87" cy="428.59" r="4.65"/>
<circle class="st0" cx="561.4" cy="715.16" r="7.76"/>
</svg>
